<svg id="vector" xmlns="http://www.w3.org/2000/svg" width="144.0d" height="144.0d" viewBox="0 0 24.0 24.0"><path fill="#182848ff" d="M18.7231,1.075C21.043,1.075 22.925,2.9571 22.925,5.2769L22.925,18.7231C22.925,21.043 21.0429,22.925 18.7231,22.925L5.2769,22.925C2.957,22.925 1.075,21.0429 1.075,18.7231L1.075,5.2769C1.075,2.957 2.9571,1.075 5.2769,1.075L18.7231,1.075ZM11.155,2.764L5.2769,2.765C3.9459,2.765 2.8555,3.8021 2.7703,5.1118L2.765,5.2769L2.765,18.7231C2.765,20.0541 3.8021,21.1446 5.1118,21.2297L5.2769,21.235L11.155,21.234L11.155,17.8188C9.703,17.5761 8.755,16.632 8.755,15.3937C8.755,14.8048 8.9232,14.5177 9.3905,14.382C9.69,14.295 9.9883,14.2765 11.155,14.2752L11.155,2.764ZM18.7231,2.765L12.845,2.764L12.845,14.277C14.9097,14.2916 15.245,14.4481 15.245,15.3937C15.245,16.5728 14.282,17.5146 12.845,17.7949L12.845,21.234L18.7231,21.235C20.0541,21.235 21.1446,20.1979 21.2297,18.8882L21.235,18.7231L21.235,5.2769C21.235,3.8904 20.1096,2.765 18.7231,2.765ZM6.6,12.115C7.3981,12.115 8.045,12.7619 8.045,13.56C8.045,14.3581 7.3981,15.005 6.6,15.005C5.8019,15.005 5.155,14.3581 5.155,13.56C5.155,12.7619 5.8019,12.115 6.6,12.115ZM17.4,12.115C18.1981,12.115 18.845,12.7619 18.845,13.56C18.845,14.3581 18.1981,15.005 17.4,15.005C16.6019,15.005 15.955,14.3581 15.955,13.56C15.955,12.7619 16.6019,12.115 17.4,12.115Z" stroke="#00000000" stroke-width="1.0" stroke-opacity="0.04" fill-opacity="1" id="path_0"/></svg>