<svg id="Layer_2" enable-background="new 0 0 24 24" height="24" viewBox="0 0 24 24" width="24" xmlns="http://www.w3.org/2000/svg">
  <path d="m4.94847 14.43077c-.49256 1.24323-1.27111 2.47339-2.31204 3.6582-.33166.37741-.37411.91504-.10491 1.33953.20752.32664.55635.51271.92505.51271.10395 0 .20965-.01463.3141-.04505 2.20534-.64414 7.35452-2.93264 7.48943-10.23892.05339-2.81977-2.00936-5.23973-4.69662-5.54047-1.47957-.14792-2.95588.33247-4.05124 1.32471-1.09785.99203-1.72636 2.40772-1.72636 3.88788 0 2.46697 1.75148 4.62642 4.17988 5.08754zm-1.45178-7.88954c.69865-.63108 1.57739-.96795 2.50984-.96795.13178 0 .26401.00659.39614.02053 1.91174.19385 3.38184 1.94688 3.34401 3.99147-.09503 5.04457-2.82546 7.31667-5.08597 8.32699.71438-.96774 1.27615-1.96342 1.67504-2.97369.15574-.39264.12992-.83009-.07064-1.20469-.20985-.39173-.58434-.66919-1.02601-.76206-1.72128-.35956-2.97123-1.89782-2.97123-3.6548 0-1.05277.44832-2.05924 1.2295-2.76469z"/>
  <path d="m14.50768 19.42699c.20752.32664.55635.51271.92505.51271.10395 0 .20936-.01463.31435-.04505 2.20534-.64414 7.35339-2.93264 7.48877-10.23892v-.00037c.05273-2.81977-2.00962-5.23931-4.69727-5.54016-1.48167-.15013-2.95629.33137-4.05164 1.32471-1.09785.99203-1.72636 2.40772-1.72636 3.88788 0 2.46701 1.75171 4.62642 4.17988 5.08754-.49141 1.24033-1.27167 2.47148-2.31229 3.65674-.33148.37778-.37396.91504-.10474 1.33966zm3.86365-4.45308c.15574-.39264.13013-.83009-.07031-1.20469-.20984-.39173-.58435-.66931-1.02637-.76208-1.72128-.35956-2.97124-1.89782-2.97124-3.6548 0-1.05309.44849-2.05933 1.22949-2.76469.69397-.62793 1.57715-.96795 2.50977-.96795.13171 0 .26392.00659.396.02053 1.91199.19385 3.38232 1.94688 3.34449 3.99147-.09534 5.04517-2.82544 7.31677-5.08593 8.3266.71362-.96691 1.27539-1.96249 1.67459-2.97279z"/>
</svg>
