<?xml version="1.0" encoding="UTF-8"?>
<svg version="1.1" xmlns="http://www.w3.org/2000/svg" width="265" height="271">
<path d="M0 0 C1.21881363 0.00264359 1.21881363 0.00264359 2.46224976 0.00534058 C15.47060303 0.06815352 27.60854757 1.02562582 39.9375 5.5 C41.00701904 5.88551025 41.00701904 5.88551025 42.09814453 6.27880859 C53.48461045 10.54186375 63.84871716 16.77414477 73.9375 23.5 C73.9375 24.16 73.9375 24.82 73.9375 25.5 C75.5875 26.16 77.2375 26.82 78.9375 27.5 C78.9375 28.16 78.9375 28.82 78.9375 29.5 C79.49953125 29.7371875 80.0615625 29.974375 80.640625 30.21875 C83.45644042 31.78947697 85.41705416 33.71471464 87.6875 36 C88.48671875 36.7940625 89.2859375 37.588125 90.109375 38.40625 C91.9375 40.5 91.9375 40.5 91.9375 42.5 C92.9275 42.83 93.9175 43.16 94.9375 43.5 C96.6541311 45.57118485 98.2134349 47.61406107 99.75 49.8125 C100.41539795 50.7554895 100.41539795 50.7554895 101.09423828 51.7175293 C104.99692166 57.36667416 108.10671746 63.24531859 110.9375 69.5 C111.29199219 70.2321875 111.64648438 70.964375 112.01171875 71.71875 C114.23931489 76.43808412 115.96352376 81.3073319 117.625 86.25 C117.83970947 86.88848877 118.05441895 87.52697754 118.27563477 88.18481445 C121.52102456 98.07398265 121.22937268 107.65137067 121.28759766 117.96899414 C121.30402001 120.09150258 121.33112382 122.21395896 121.36962891 124.33618164 C121.69665281 142.50022662 119.51439004 158.22647968 110.9375 174.5 C110.64423828 175.0789502 110.35097656 175.65790039 110.04882812 176.25439453 C104.33098235 187.48012495 97.24060574 197.051251 88.9375 206.5 C88.25042969 207.29019531 87.56335938 208.08039063 86.85546875 208.89453125 C72.47904607 224.27323176 52.0323155 234.95022357 31.9375 240.5 C30.7626001 240.84168213 29.5877002 241.18336426 28.37719727 241.53540039 C23.42583972 242.76027194 18.58850911 242.84180647 13.5078125 242.87109375 C12.51860809 242.88012222 11.52940369 242.8891507 10.51022339 242.89845276 C8.42090856 242.91290383 6.33154901 242.92182914 4.2421875 242.92553711 C1.10595307 242.93733652 -2.02824791 242.9864919 -5.1640625 243.03710938 C-21.62264624 243.17129988 -36.14181075 240.63413642 -50.9375 233.1875 C-51.72721191 232.79997559 -52.51692383 232.41245117 -53.33056641 232.01318359 C-65.19502494 226.06761257 -75.19890597 218.2720762 -85.0625 209.5 C-85.71863281 208.92894531 -86.37476563 208.35789063 -87.05078125 207.76953125 C-106.89536034 189.34580508 -120.35287167 159.38696114 -121.44810486 132.49838257 C-121.52953038 129.0810997 -121.53089792 125.66794609 -121.5 122.25 C-121.49695862 121.53177063 -121.49391724 120.81354126 -121.49078369 120.07354736 C-121.38138748 102.54827372 -118.34839713 87.44119178 -111.0625 71.5 C-110.27552734 69.74429688 -110.27552734 69.74429688 -109.47265625 67.953125 C-104.31068909 57.02190042 -97.80459653 46.91779295 -89.0625 38.5 C-88.45148438 37.86578125 -87.84046875 37.2315625 -87.2109375 36.578125 C-63.83272099 12.47899432 -33.46149383 -0.19422838 0 0 Z M-73.46875 54.56640625 C-91.59427412 75.06681079 -100.69082895 101.19950603 -99.0625 128.5 C-96.94197388 157.29136875 -83.84651463 180.72410339 -62.30078125 199.58984375 C-51.59281232 208.72805807 -37.89271693 215.31547274 -24.25 218.625 C-23.54641357 218.79676758 -22.84282715 218.96853516 -22.11791992 219.14550781 C-16.77031504 220.41070433 -11.56367074 221.2890925 -6.0625 221.5 C-5.15242188 221.5515625 -4.24234375 221.603125 -3.3046875 221.65625 C11.17812801 222.10073539 26.48226336 219.98795366 39.9375 214.5 C39.9375 213.84 39.9375 213.18 39.9375 212.5 C41.154375 212.190625 42.37125 211.88125 43.625 211.5625 C63.78067004 204.77022875 80.96292581 184.22218867 90.36108398 165.88891602 C101.60585805 143.09465551 103.78344631 114.80047114 95.68359375 90.53125 C92.44833635 81.66261198 87.88998763 73.51019761 82.9375 65.5 C82.58719727 64.92781738 82.23689453 64.35563477 81.87597656 63.76611328 C80.95272624 62.30693366 79.95086222 60.89810348 78.9375 59.5 C78.2775 59.5 77.6175 59.5 76.9375 59.5 C76.69 58.943125 76.4425 58.38625 76.1875 57.8125 C67.29823159 41.36735343 44.77348638 30.74867923 27.60546875 25.46484375 C-9.63290602 15.66944591 -46.89758564 27.04081788 -73.46875 54.56640625 Z " fill="#FCFCFC" transform="translate(133.0625,12.5)"/>
<path d="M0 0 C0.7532959 0.02078613 1.5065918 0.04157227 2.28271484 0.06298828 C7.96867265 0.30286651 13.27666193 1.31185851 18.77734375 2.77734375 C22.24624593 3.62249446 25.6424701 4.08271652 29.1875 4.5 C35.04246576 5.24938688 40.83490426 6.16106385 46.625 7.3125 C47.38321045 7.44519287 48.1414209 7.57788574 48.92260742 7.71459961 C52.82180153 8.53288427 55.30555043 9.42630789 57.98828125 12.453125 C60.6151979 16.51336898 60.97407864 18.9054764 60 23.5625 C58.12788575 27.77475706 56.94983839 29.19709288 52.62890625 30.859375 C46.75025097 32.16707315 41.22649076 30.66470497 35.4375 29.4375 C33.0341605 28.95679924 30.63050807 28.47766062 28.2265625 28 C27.02161133 27.75636719 25.81666016 27.51273438 24.57519531 27.26171875 C18.24688791 26.02406016 11.88051715 25.00039646 5.51147461 23.99560547 C-8.00433894 21.74525429 -8.00433894 21.74525429 -12 17.375 C-13.29336808 13.73740226 -14.02854302 10.3045019 -13 6.5625 C-9.42238754 0.89336026 -6.75280563 -0.36497559 0 0 Z " fill="#FCFCFC" transform="translate(103,187.4375)"/>
<path d="M0 0 C2.91826744 2.29292442 3.81903418 3.70769112 4.33203125 7.37109375 C4.48650119 11.22140003 4.25248327 14.30195802 2.9375 17.9375 C-0.63482432 21.74029685 -5.09687675 23.13320111 -10.19140625 23.3984375 C-11.64843727 23.40629211 -13.10563427 23.39830985 -14.5625 23.375 C-15.29146484 23.38660156 -16.02042969 23.39820313 -16.77148438 23.41015625 C-21.55198402 23.38433897 -24.86769665 22.6302142 -29 20 C-31.95662647 15.6636145 -32.63742017 12.19042137 -32 7 C-30.8698346 3.34579855 -29.43140732 0.81017654 -26.046875 -1.10546875 C-17.2968947 -4.36376561 -8.50786717 -3.75751405 0 0 Z " fill="#FBFBFB" transform="translate(207,162)"/>
<path d="M0 0 C0.68642578 -0.020625 1.37285156 -0.04125 2.08007812 -0.0625 C7.17230236 -0.10104096 10.65899341 0.89472145 15.1875 3.25 C18.47621898 6.85698211 18.6597756 10.40760345 18.46484375 15.1015625 C18.06075479 18.23182907 17.32124252 19.90976627 15.1875 22.25 C10.11279091 24.86674611 5.92122918 25.7238574 0.1875 25.625 C-0.82183594 25.64240234 -0.82183594 25.64240234 -1.8515625 25.66015625 C-6.94621753 25.63065053 -10.41214268 24.65369519 -14.8125 22.25 C-17.52306017 18.77709478 -18.07427493 14.38178633 -17.8125 10.0625 C-16.65853372 5.66300356 -15.39209967 3.99713463 -11.8125 1.25 C-8.01374423 -0.13698757 -3.99540883 0.02951364 0 0 Z " fill="#FBFBFA" transform="translate(73.8125,159.75)"/>
</svg>
