<?xml version="1.0" encoding="UTF-8"?>
<svg version="1.1" xmlns="http://www.w3.org/2000/svg" width="265" height="271">
<path d="M0 0 C1.21881363 0.00264359 1.21881363 0.00264359 2.46224976 0.00534058 C15.47060303 0.06815352 27.60854757 1.02562582 39.9375 5.5 C41.00701904 5.88551025 41.00701904 5.88551025 42.09814453 6.27880859 C54.20572365 10.81184614 65.94044848 17.29861922 75.9375 25.5 C76.9275 26.16 77.9175 26.82 78.9375 27.5 C78.9375 28.16 78.9375 28.82 78.9375 29.5 C79.49953125 29.7371875 80.0615625 29.974375 80.640625 30.21875 C83.45644042 31.78947697 85.41705416 33.71471464 87.6875 36 C88.48671875 36.7940625 89.2859375 37.588125 90.109375 38.40625 C91.9375 40.5 91.9375 40.5 91.9375 42.5 C92.9275 42.83 93.9175 43.16 94.9375 43.5 C96.6541311 45.57118485 98.2134349 47.61406107 99.75 49.8125 C100.41539795 50.7554895 100.41539795 50.7554895 101.09423828 51.7175293 C104.99692166 57.36667416 108.10671746 63.24531859 110.9375 69.5 C111.29199219 70.2321875 111.64648438 70.964375 112.01171875 71.71875 C114.23931489 76.43808412 115.96352376 81.3073319 117.625 86.25 C117.83970947 86.88848877 118.05441895 87.52697754 118.27563477 88.18481445 C121.52102456 98.07398265 121.22937268 107.65137067 121.28759766 117.96899414 C121.30402001 120.09150258 121.33112382 122.21395896 121.36962891 124.33618164 C121.69665281 142.50022662 119.51439004 158.22647968 110.9375 174.5 C110.64423828 175.0789502 110.35097656 175.65790039 110.04882812 176.25439453 C104.33098235 187.48012495 97.24060574 197.051251 88.9375 206.5 C88.25042969 207.29019531 87.56335938 208.08039063 86.85546875 208.89453125 C72.47904607 224.27323176 52.0323155 234.95022357 31.9375 240.5 C30.7626001 240.84168213 29.5877002 241.18336426 28.37719727 241.53540039 C23.42583972 242.76027194 18.58850911 242.84180647 13.5078125 242.87109375 C12.51860809 242.88012222 11.52940369 242.8891507 10.51022339 242.89845276 C8.42090856 242.91290383 6.33154901 242.92182914 4.2421875 242.92553711 C1.10595307 242.93733652 -2.02824791 242.9864919 -5.1640625 243.03710938 C-21.62264624 243.17129988 -36.14181075 240.63413642 -50.9375 233.1875 C-51.72721191 232.79997559 -52.51692383 232.41245117 -53.33056641 232.01318359 C-65.19502494 226.06761257 -75.19890597 218.2720762 -85.0625 209.5 C-85.71863281 208.92894531 -86.37476563 208.35789063 -87.05078125 207.76953125 C-106.89536034 189.34580508 -120.35287167 159.38696114 -121.44810486 132.49838257 C-121.52953038 129.0810997 -121.53089792 125.66794609 -121.5 122.25 C-121.49695862 121.53177063 -121.49391724 120.81354126 -121.49078369 120.07354736 C-121.38138748 102.54827372 -118.34839713 87.44119178 -111.0625 71.5 C-110.27552734 69.74429688 -110.27552734 69.74429688 -109.47265625 67.953125 C-104.31068909 57.02190042 -97.80459653 46.91779295 -89.0625 38.5 C-88.45148438 37.86578125 -87.84046875 37.2315625 -87.2109375 36.578125 C-63.83272099 12.47899432 -33.46149383 -0.19422838 0 0 Z M-73.46875 54.56640625 C-91.59427412 75.06681079 -100.69082895 101.19950603 -99.0625 128.5 C-96.94197388 157.29136875 -83.84651463 180.72410339 -62.30078125 199.58984375 C-51.59281232 208.72805807 -37.89271693 215.31547274 -24.25 218.625 C-23.54641357 218.79676758 -22.84282715 218.96853516 -22.11791992 219.14550781 C-16.77031504 220.41070433 -11.56367074 221.2890925 -6.0625 221.5 C-5.15242188 221.5515625 -4.24234375 221.603125 -3.3046875 221.65625 C11.39604105 222.10742325 26.76622022 220.2387943 39.9375 213.5 C40.9275 213.04625 41.9175 212.5925 42.9375 212.125 C67.66794473 200.51683207 85.15245927 180.02169441 95.3125 155.0625 C103.28178507 130.82563761 102.30967515 102.4352206 90.9375 79.5 C88.45512355 74.72225035 85.76915492 70.07994389 82.9375 65.5 C82.58719727 64.92781738 82.23689453 64.35563477 81.87597656 63.76611328 C80.95272624 62.30693366 79.95086222 60.89810348 78.9375 59.5 C78.2775 59.5 77.6175 59.5 76.9375 59.5 C76.69 58.943125 76.4425 58.38625 76.1875 57.8125 C73.16647888 52.22361093 68.8291353 48.40045967 63.9375 44.5 C63.17824219 43.87996094 62.41898438 43.25992188 61.63671875 42.62109375 C20.17040132 10.46739389 -37.84304123 17.6610384 -73.46875 54.56640625 Z " fill="#FCFCFC" transform="translate(133.0625,12.5)"/>
<path d="M0 0 C6.30409808 6.74241983 7.33795119 13.03773263 7.15234375 22.1015625 C6.85317803 25.88938658 6.29093256 28.17279855 3.91015625 31.16796875 C-4.74543486 37.79778321 -15.76443426 37.34447906 -26.21484375 37.41796875 C-27.13273682 37.42731445 -28.05062988 37.43666016 -28.99633789 37.44628906 C-38.14216025 37.40370083 -46.45480434 36.46575119 -54.08984375 31.16796875 C-58.44364088 26.3787919 -58.43123581 21.52968543 -58.37109375 15.3125 C-57.83841216 9.35682389 -55.52236333 5.06395055 -51.96484375 0.35546875 C-39.22559452 -9.33743827 -12.51797204 -10.97369885 0 0 Z " fill="#FDFDFD" transform="translate(159.08984375,176.83203125)"/>
<path d="M0 0 C0.61875 0.33 1.2375 0.66 1.875 1 C1.875 1.66 1.875 2.32 1.875 3 C2.4525 3.185625 3.03 3.37125 3.625 3.5625 C6.94982657 5.68669475 8.55892815 8.37245169 9.875 12 C10.81053318 17.278467 10.45992761 21.66748799 7.8125 26.375 C4.05830021 31.58040307 -0.29837728 33.88949287 -6.5625 35 C-11.55655444 35.34881811 -15.11675424 33.92304385 -19.125 31 C-22.44358642 27.91725221 -25.09099907 24.446204 -26.125 20 C-26.22047218 13.6869022 -24.76207224 9.13469022 -21.125 4 C-20.135 3.67 -19.145 3.34 -18.125 3 C-18.125 2.34 -18.125 1.68 -18.125 1 C-12.53477486 -1.98145341 -5.9325054 -1.89840173 0 0 Z " fill="#FBFBFB" transform="translate(201.125,140)"/>
<path d="M0 0 C0.94746094 -0.01417969 1.89492187 -0.02835938 2.87109375 -0.04296875 C5.60751644 0.19135482 7.22678123 0.79048617 9.5625 2.1875 C9.5625 2.8475 9.5625 3.5075 9.5625 4.1875 C10.14 4.373125 10.7175 4.55875 11.3125 4.75 C14.63732657 6.87419475 16.24642815 9.55995169 17.5625 13.1875 C18.49803318 18.465967 18.14742761 22.85498799 15.5 27.5625 C11.9132217 32.54973387 7.62367016 34.99583856 1.625 36.125 C-4.23689822 36.59077098 -8.69257052 34.54466737 -13.25 31 C-17.00534464 26.17169975 -18.80109062 21.7356178 -18.375 15.5625 C-17.49181613 10.04497495 -14.99652935 6.59442892 -10.875 2.875 C-7.20478252 0.3340802 -4.36162199 0.02959038 0 0 Z " fill="#FBFBFC" transform="translate(74.4375,138.8125)"/>
</svg>
