<?xml version="1.0" encoding="UTF-8"?>
<svg version="1.1" xmlns="http://www.w3.org/2000/svg" width="265" height="271">
<path d="M0 0 C1.23379898 -0.00110275 1.23379898 -0.00110275 2.49252319 -0.00222778 C15.59357412 0.02853671 27.76692761 0.92987547 40.1875 5.4375 C41.25701904 5.82301025 41.25701904 5.82301025 42.34814453 6.21630859 C53.73461045 10.47936375 64.09871716 16.71164477 74.1875 23.4375 C74.1875 24.0975 74.1875 24.7575 74.1875 25.4375 C75.8375 26.0975 77.4875 26.7575 79.1875 27.4375 C79.1875 28.0975 79.1875 28.7575 79.1875 29.4375 C79.74953125 29.6746875 80.3115625 29.911875 80.890625 30.15625 C83.70644042 31.72697697 85.66705416 33.65221464 87.9375 35.9375 C88.73671875 36.7315625 89.5359375 37.525625 90.359375 38.34375 C92.1875 40.4375 92.1875 40.4375 92.1875 42.4375 C93.1775 42.7675 94.1675 43.0975 95.1875 43.4375 C96.9041311 45.50868485 98.4634349 47.55156107 100 49.75 C100.66539795 50.6929895 100.66539795 50.6929895 101.34423828 51.6550293 C105.24692166 57.30417416 108.35671746 63.18281859 111.1875 69.4375 C111.54199219 70.1696875 111.89648438 70.901875 112.26171875 71.65625 C114.48931489 76.37558412 116.21352376 81.2448319 117.875 86.1875 C118.08970947 86.82598877 118.30441895 87.46447754 118.52563477 88.12231445 C121.77102456 98.01148265 121.47937268 107.58887067 121.53759766 117.90649414 C121.55402001 120.02900258 121.58112382 122.15145896 121.61962891 124.27368164 C121.94665281 142.43772662 119.76439004 158.16397968 111.1875 174.4375 C110.89423828 175.0164502 110.60097656 175.59540039 110.29882812 176.19189453 C104.58098235 187.41762495 97.49060574 196.988751 89.1875 206.4375 C88.50042969 207.22769531 87.81335938 208.01789063 87.10546875 208.83203125 C72.72904607 224.21073176 52.2823155 234.88772357 32.1875 240.4375 C31.0126001 240.77918213 29.8377002 241.12086426 28.62719727 241.47290039 C23.67583972 242.69777194 18.83850911 242.77930647 13.7578125 242.80859375 C12.76860809 242.81762222 11.77940369 242.8266507 10.76022339 242.83595276 C8.67090856 242.85040383 6.58154901 242.85932914 4.4921875 242.86303711 C1.35595307 242.87483652 -1.77824791 242.9239919 -4.9140625 242.97460938 C-21.37264624 243.10879988 -35.89181075 240.57163642 -50.6875 233.125 C-51.47721191 232.73747559 -52.26692383 232.34995117 -53.08056641 231.95068359 C-64.94502494 226.00511257 -74.94890597 218.2095762 -84.8125 209.4375 C-85.46863281 208.86644531 -86.12476563 208.29539063 -86.80078125 207.70703125 C-106.64536034 189.28330508 -120.10287167 159.32446114 -121.19810486 132.43588257 C-121.27953038 129.0185997 -121.28089792 125.60544609 -121.25 122.1875 C-121.24695862 121.46927063 -121.24391724 120.75104126 -121.24078369 120.01104736 C-121.13138748 102.48577372 -118.09839713 87.37869178 -110.8125 71.4375 C-110.02552734 69.68179688 -110.02552734 69.68179688 -109.22265625 67.890625 C-104.06068909 56.95940042 -97.55459653 46.85529295 -88.8125 38.4375 C-88.20148438 37.80328125 -87.59046875 37.1690625 -86.9609375 36.515625 C-70.47014324 19.51630404 -50.61156946 8.48743515 -27.8125 2.4375 C-27.1208374 2.24841064 -26.4291748 2.05932129 -25.71655273 1.86450195 C-17.26986089 -0.1454987 -8.6319928 -0.00334143 0 0 Z M-73.21875 54.50390625 C-90.3843848 73.91865284 -99.66397093 98.58627583 -98.99609375 124.515625 C-97.17086216 153.56399159 -86.26272544 177.89722596 -64.4375 197.4375 C-52.9056181 207.53497433 -38.95470994 214.93426287 -24 218.5625 C-23.29713867 218.73426758 -22.59427734 218.90603516 -21.87011719 219.08300781 C-16.52611138 220.34837011 -11.31076605 221.23120291 -5.8125 221.4375 C-4.92949219 221.47746094 -4.04648438 221.51742187 -3.13671875 221.55859375 C21.4093803 222.12325367 44.07517716 215.036966 63.1875 199.4375 C64.42886719 198.42429688 64.42886719 198.42429688 65.6953125 197.390625 C85.74623714 180.1682007 97.53534259 157.72474699 100.1875 131.4375 C101.97189259 106.87941895 96.03945526 86.2243669 83.1875 65.4375 C82.83719727 64.86531738 82.48689453 64.29313477 82.12597656 63.70361328 C81.20272624 62.24443366 80.20086222 60.83560348 79.1875 59.4375 C78.5275 59.4375 77.8675 59.4375 77.1875 59.4375 C76.94 58.880625 76.6925 58.32375 76.4375 57.75 C67.54823159 41.30485343 45.02348638 30.68617923 27.85546875 25.40234375 C-9.38290602 15.60694591 -46.64758564 26.97831788 -73.21875 54.50390625 Z " fill="#FCFCFC" transform="translate(132.8125,12.5625)"/>
<path d="M0 0 C1.73816699 0.97969412 3.47714003 1.96328608 5.1496582 3.05126953 C16.15986381 8.69656033 36.98778206 5.76343997 48.85546875 3.73046875 C51.07916087 3.1577626 51.07916087 3.1577626 52.484375 1.44140625 C54 0 54 0 56.41015625 -0.328125 C57.28542969 -0.30234375 58.16070312 -0.2765625 59.0625 -0.25 C59.94035156 -0.23453125 60.81820312 -0.2190625 61.72265625 -0.203125 C64 0 64 0 66 1 C66 1.66 66 2.32 66 3 C66.99 3.33 67.98 3.66 69 4 C70.728585 8.55717864 71.27355118 10.86671652 70.125 15.625 C66.71848727 21.03534375 61.79020312 24.38979846 56 27 C53.99560547 27.41064453 53.99560547 27.41064453 51.8671875 27.6328125 C51.07038574 27.71692383 50.27358398 27.80103516 49.45263672 27.88769531 C48.6020166 27.96600586 47.75139648 28.04431641 46.875 28.125 C45.98699707 28.2084668 45.09899414 28.29193359 44.18408203 28.37792969 C2.97690287 31.96753285 2.97690287 31.96753285 -9 22 C-12.21738356 19.2952394 -14.57511245 16.91693452 -15.50390625 12.7265625 C-15.71381997 8.65017341 -15.31795864 6.50873382 -13.125 3 C-9.16071512 -0.73109165 -5.24530499 -0.66000526 0 0 Z " fill="#FAFAFB" transform="translate(106,171)"/>
<path d="M0 0 C1.03769531 -0.02578125 2.07539063 -0.0515625 3.14453125 -0.078125 C8.20059031 0.46707264 11.25268798 2.92822557 14.4375 6.75 C14.93765625 7.3378125 15.4378125 7.925625 15.953125 8.53125 C18.86601842 12.58717754 18.9140872 17.46595394 18.1875 22.25 C16.52717125 25.51554286 14.28015525 27.67522803 11.01171875 29.39453125 C7.38341278 30.49356169 3.9404495 30.54154557 0.1875 30.5 C-0.51117188 30.50773437 -1.20984375 30.51546875 -1.9296875 30.5234375 C-5.98963896 30.50811693 -9.21072104 30.16919609 -12.8125 28.25 C-17.79937929 22.70902301 -17.79937929 22.70902301 -17.83203125 19.078125 C-17.25988025 11.95322579 -15.69431527 7.78874202 -10.1875 2.9375 C-6.54003531 0.34588035 -4.46235855 0.0660275 0 0 Z " fill="#FCFCFC" transform="translate(192.8125,138.75)"/>
<path d="M0 0 C1.01964844 -0.01675781 2.03929688 -0.03351563 3.08984375 -0.05078125 C8.08941584 0.56020456 11.15518104 3.02371725 14.3125 6.8125 C14.81265625 7.4003125 15.3128125 7.988125 15.828125 8.59375 C18.74429276 12.65423675 18.78160176 17.52393602 18.0625 22.3125 C16.32402487 25.86438452 13.99707767 27.92431127 10.31640625 29.453125 C3.6513224 31.21341125 -4.62900827 31.6372616 -11.125 29 C-16.48735755 25.78258547 -16.48735755 25.78258547 -17.5546875 22.296875 C-18.36034418 15.31451715 -16.85955689 10.58779119 -12.5 5 C-8.50870357 0.81400618 -5.75330302 0.02176533 0 0 Z " fill="#FCFCFC" transform="translate(73.9375,138.6875)"/>
</svg>
