<?xml version="1.0" encoding="UTF-8"?>
<svg version="1.1" xmlns="http://www.w3.org/2000/svg" width="265" height="271">
<path d="M0 0 C1.21881363 0.00264359 1.21881363 0.00264359 2.46224976 0.00534058 C15.47060303 0.06815352 27.60854757 1.02562582 39.9375 5.5 C41.00701904 5.88551025 41.00701904 5.88551025 42.09814453 6.27880859 C53.48461045 10.54186375 63.84871716 16.77414477 73.9375 23.5 C73.9375 24.16 73.9375 24.82 73.9375 25.5 C75.5875 26.16 77.2375 26.82 78.9375 27.5 C78.9375 28.16 78.9375 28.82 78.9375 29.5 C79.49953125 29.7371875 80.0615625 29.974375 80.640625 30.21875 C83.45644042 31.78947697 85.41705416 33.71471464 87.6875 36 C88.48671875 36.7940625 89.2859375 37.588125 90.109375 38.40625 C91.9375 40.5 91.9375 40.5 91.9375 42.5 C92.9275 42.83 93.9175 43.16 94.9375 43.5 C96.6541311 45.57118485 98.2134349 47.61406107 99.75 49.8125 C100.41539795 50.7554895 100.41539795 50.7554895 101.09423828 51.7175293 C104.99692166 57.36667416 108.10671746 63.24531859 110.9375 69.5 C111.29199219 70.2321875 111.64648438 70.964375 112.01171875 71.71875 C114.23931489 76.43808412 115.96352376 81.3073319 117.625 86.25 C117.83970947 86.88848877 118.05441895 87.52697754 118.27563477 88.18481445 C121.52102456 98.07398265 121.22937268 107.65137067 121.28759766 117.96899414 C121.30402001 120.09150258 121.33112382 122.21395896 121.36962891 124.33618164 C121.69665281 142.50022662 119.51439004 158.22647968 110.9375 174.5 C110.64423828 175.0789502 110.35097656 175.65790039 110.04882812 176.25439453 C104.33098235 187.48012495 97.24060574 197.051251 88.9375 206.5 C88.25042969 207.29019531 87.56335938 208.08039063 86.85546875 208.89453125 C72.47904607 224.27323176 52.0323155 234.95022357 31.9375 240.5 C30.7626001 240.84168213 29.5877002 241.18336426 28.37719727 241.53540039 C23.42583972 242.76027194 18.58850911 242.84180647 13.5078125 242.87109375 C12.51860809 242.88012222 11.52940369 242.8891507 10.51022339 242.89845276 C8.42090856 242.91290383 6.33154901 242.92182914 4.2421875 242.92553711 C1.10595307 242.93733652 -2.02824791 242.9864919 -5.1640625 243.03710938 C-21.62264624 243.17129988 -36.14181075 240.63413642 -50.9375 233.1875 C-51.72721191 232.79997559 -52.51692383 232.41245117 -53.33056641 232.01318359 C-65.19502494 226.06761257 -75.19890597 218.2720762 -85.0625 209.5 C-85.71863281 208.92894531 -86.37476563 208.35789063 -87.05078125 207.76953125 C-106.89536034 189.34580508 -120.35287167 159.38696114 -121.44810486 132.49838257 C-121.52953038 129.0810997 -121.53089792 125.66794609 -121.5 122.25 C-121.49695862 121.53177063 -121.49391724 120.81354126 -121.49078369 120.07354736 C-121.38138748 102.54827372 -118.34839713 87.44119178 -111.0625 71.5 C-110.27552734 69.74429688 -110.27552734 69.74429688 -109.47265625 67.953125 C-104.31068909 57.02190042 -97.80459653 46.91779295 -89.0625 38.5 C-88.45148438 37.86578125 -87.84046875 37.2315625 -87.2109375 36.578125 C-63.83272099 12.47899432 -33.46149383 -0.19422838 0 0 Z M-73.46875 54.56640625 C-91.59427412 75.06681079 -100.69082895 101.19950603 -99.0625 128.5 C-96.94197388 157.29136875 -83.84651463 180.72410339 -62.30078125 199.58984375 C-51.59281232 208.72805807 -37.89271693 215.31547274 -24.25 218.625 C-23.54641357 218.79676758 -22.84282715 218.96853516 -22.11791992 219.14550781 C-16.77031504 220.41070433 -11.56367074 221.2890925 -6.0625 221.5 C-5.15242188 221.5515625 -4.24234375 221.603125 -3.3046875 221.65625 C11.39604105 222.10742325 26.76622022 220.2387943 39.9375 213.5 C40.9275 213.04625 41.9175 212.5925 42.9375 212.125 C67.66794473 200.51683207 85.15245927 180.02169441 95.3125 155.0625 C103.28178507 130.82563761 102.30967515 102.4352206 90.9375 79.5 C88.45512355 74.72225035 85.76915492 70.07994389 82.9375 65.5 C82.58719727 64.92781738 82.23689453 64.35563477 81.87597656 63.76611328 C80.95272624 62.30693366 79.95086222 60.89810348 78.9375 59.5 C78.2775 59.5 77.6175 59.5 76.9375 59.5 C76.69 58.943125 76.4425 58.38625 76.1875 57.8125 C73.16647888 52.22361093 68.8291353 48.40045967 63.9375 44.5 C63.17824219 43.87996094 62.41898438 43.25992188 61.63671875 42.62109375 C20.17040132 10.46739389 -37.84304123 17.6610384 -73.46875 54.56640625 Z " fill="#FCFCFC" transform="translate(133.0625,12.5)"/>
<path d="M0 0 C0.89152771 -0.00637985 1.78305542 -0.0127597 2.70159912 -0.01933289 C3.65375305 -0.02044571 4.60590698 -0.02155853 5.58691406 -0.02270508 C6.57951233 -0.02603348 7.5721106 -0.02936188 8.5947876 -0.03279114 C10.69274432 -0.03784628 12.79070906 -0.0401999 14.88867188 -0.04003906 C18.07728552 -0.04221906 21.26554937 -0.06037209 24.45410156 -0.0793457 C26.49837122 -0.08228132 28.54264251 -0.08426499 30.58691406 -0.08520508 C32.00299957 -0.09598335 32.00299957 -0.09598335 33.44769287 -0.10697937 C40.73179227 -0.08219276 47.91578164 0.44663845 54.35253906 4.14526367 C57.44718872 8.0422299 58.50259418 12.21992495 58.35253906 17.14526367 C56.50281215 26.16459325 51.76063636 32.81504732 44.35253906 38.14526367 C32.55485275 45.25174401 17.95020638 46.31052965 4.62988281 43.30541992 C-3.62914117 40.1403488 -11.04130892 34.81043045 -15.14746094 26.83276367 C-17.82271512 20.25609715 -19.03803423 14.11599502 -16.45996094 7.27026367 C-14.47200425 3.84275214 -13.25195223 2.69004565 -9.64746094 1.14526367 C-6.38530681 0.37393186 -3.34769457 0.01638226 0 0 Z " fill="#FCFCFD" transform="translate(113.6474609375,153.854736328125)"/>
<path d="M0 0 C4.64955944 5.19656643 6.82441873 10.30703808 6.4375 17.33203125 C5.9689955 20.39487942 5.22080713 22.07637283 3.125 24.375 C-3.44714061 28.70663813 -11.27196891 27.99463029 -18.875 27.375 C-22.50662428 26.56667072 -24.95884947 25.19953548 -27.75 22.6875 C-30.09606244 17.86503832 -30.4462315 13.31285704 -28.875 8.25 C-26.39578032 2.52525637 -22.12831462 -0.60463112 -16.5625 -3.125 C-10.55175954 -3.94001566 -5.29095404 -2.99053924 0 0 Z " fill="#FBFBFB" transform="translate(204.875,136.625)"/>
<path d="M0 0 C5.17014659 5.62633599 6.58525475 9.55439167 6.36328125 17.078125 C6.125 19.3125 6.125 19.3125 5.125 22.3125 C-0.5743644 26.52507369 -4.73951229 27.51210662 -11.6875 27.5625 C-12.38681641 27.583125 -13.08613281 27.60375 -13.80664062 27.625 C-19.42702491 27.66706087 -23.54110733 26.48543455 -27.6875 22.625 C-30.13977107 17.84952476 -30.44404495 13.2433115 -28.875 8.1875 C-26.39578032 2.46275637 -22.12831462 -0.66713112 -16.5625 -3.1875 C-10.5448179 -4.0034569 -5.25412191 -3.08394112 0 0 Z " fill="#FBFBFB" transform="translate(85.875,136.6875)"/>
<path d="" fill="#0000FF" transform="translate(0,0)"/>
</svg>
