<?xml version="1.0" encoding="UTF-8"?>
<svg version="1.1" xmlns="http://www.w3.org/2000/svg" width="265" height="271">
<path d="M0 0 C1.21881363 0.00264359 1.21881363 0.00264359 2.46224976 0.00534058 C15.47060303 0.06815352 27.60854757 1.02562582 39.9375 5.5 C41.00701904 5.88551025 41.00701904 5.88551025 42.09814453 6.27880859 C54.20572365 10.81184614 65.94044848 17.29861922 75.9375 25.5 C76.9275 26.16 77.9175 26.82 78.9375 27.5 C78.9375 28.16 78.9375 28.82 78.9375 29.5 C79.49953125 29.7371875 80.0615625 29.974375 80.640625 30.21875 C83.45644042 31.78947697 85.41705416 33.71471464 87.6875 36 C88.48671875 36.7940625 89.2859375 37.588125 90.109375 38.40625 C91.9375 40.5 91.9375 40.5 91.9375 42.5 C92.9275 42.83 93.9175 43.16 94.9375 43.5 C96.6541311 45.57118485 98.2134349 47.61406107 99.75 49.8125 C100.41539795 50.7554895 100.41539795 50.7554895 101.09423828 51.7175293 C104.99692166 57.36667416 108.10671746 63.24531859 110.9375 69.5 C111.29199219 70.2321875 111.64648438 70.964375 112.01171875 71.71875 C114.23931489 76.43808412 115.96352376 81.3073319 117.625 86.25 C117.83970947 86.88848877 118.05441895 87.52697754 118.27563477 88.18481445 C121.52102456 98.07398265 121.22937268 107.65137067 121.28759766 117.96899414 C121.30402001 120.09150258 121.33112382 122.21395896 121.36962891 124.33618164 C121.69665281 142.50022662 119.51439004 158.22647968 110.9375 174.5 C110.64423828 175.0789502 110.35097656 175.65790039 110.04882812 176.25439453 C104.33098235 187.48012495 97.24060574 197.051251 88.9375 206.5 C88.25042969 207.29019531 87.56335938 208.08039063 86.85546875 208.89453125 C72.47904607 224.27323176 52.0323155 234.95022357 31.9375 240.5 C30.7626001 240.84168213 29.5877002 241.18336426 28.37719727 241.53540039 C23.42583972 242.76027194 18.58850911 242.84180647 13.5078125 242.87109375 C12.51860809 242.88012222 11.52940369 242.8891507 10.51022339 242.89845276 C8.42090856 242.91290383 6.33154901 242.92182914 4.2421875 242.92553711 C1.10595307 242.93733652 -2.02824791 242.9864919 -5.1640625 243.03710938 C-21.62264624 243.17129988 -36.14181075 240.63413642 -50.9375 233.1875 C-51.72721191 232.79997559 -52.51692383 232.41245117 -53.33056641 232.01318359 C-65.19502494 226.06761257 -75.19890597 218.2720762 -85.0625 209.5 C-85.71863281 208.92894531 -86.37476563 208.35789063 -87.05078125 207.76953125 C-106.89536034 189.34580508 -120.35287167 159.38696114 -121.44810486 132.49838257 C-121.52953038 129.0810997 -121.53089792 125.66794609 -121.5 122.25 C-121.49695862 121.53177063 -121.49391724 120.81354126 -121.49078369 120.07354736 C-121.38138748 102.54827372 -118.34839713 87.44119178 -111.0625 71.5 C-110.27552734 69.74429688 -110.27552734 69.74429688 -109.47265625 67.953125 C-104.31068909 57.02190042 -97.80459653 46.91779295 -89.0625 38.5 C-88.45148438 37.86578125 -87.84046875 37.2315625 -87.2109375 36.578125 C-63.83272099 12.47899432 -33.46149383 -0.19422838 0 0 Z M-66.0625 47.5 C-66.91457031 48.27085938 -67.76664063 49.04171875 -68.64453125 49.8359375 C-88.3532899 68.54563465 -97.6810889 93.01601132 -99.25 119.6875 C-99.80760031 145.33711404 -90.77090928 169.17493935 -74.0625 188.5 C-60.11461823 202.92215287 -44.01371167 213.83060729 -24.25 218.625 C-23.54641357 218.79676758 -22.84282715 218.96853516 -22.11791992 219.14550781 C-16.77031504 220.41070433 -11.56367074 221.2890925 -6.0625 221.5 C-5.15242188 221.5515625 -4.24234375 221.603125 -3.3046875 221.65625 C11.17812801 222.10073539 26.48226336 219.98795366 39.9375 214.5 C39.9375 213.84 39.9375 213.18 39.9375 212.5 C41.154375 212.190625 42.37125 211.88125 43.625 211.5625 C63.78067004 204.77022875 80.96292581 184.22218867 90.36108398 165.88891602 C101.60585805 143.09465551 103.78344631 114.80047114 95.68359375 90.53125 C92.44833635 81.66261198 87.88998763 73.51019761 82.9375 65.5 C82.58719727 64.92781738 82.23689453 64.35563477 81.87597656 63.76611328 C80.95272624 62.30693366 79.95086222 60.89810348 78.9375 59.5 C78.2775 59.5 77.6175 59.5 76.9375 59.5 C76.69 58.943125 76.4425 58.38625 76.1875 57.8125 C73.16647888 52.22361093 68.8291353 48.40045967 63.9375 44.5 C63.17824219 43.87996094 62.41898438 43.25992188 61.63671875 42.62109375 C24.1842351 13.57979004 -31.17265599 15.54881054 -66.0625 47.5 Z " fill="#FCFCFC" transform="translate(133.0625,12.5)"/>
<path d="M0 0 C1.04924149 -0.0033284 2.09848297 -0.0066568 3.17951965 -0.01008606 C5.39417078 -0.01513349 7.60882946 -0.01749506 9.82348633 -0.01733398 C13.1786787 -0.01951284 16.53353789 -0.03767115 19.88867188 -0.05664062 C22.05078014 -0.05957668 24.21288995 -0.06156006 26.375 -0.0625 C27.36292038 -0.06968552 28.35084076 -0.07687103 29.36869812 -0.08427429 C47.64527946 -0.02554918 47.64527946 -0.02554918 55.01953125 5.16796875 C58.03461966 9.63861708 58.88534309 13.8768964 58.01953125 19.16796875 C55.01688225 28.82164671 48.65267916 34.32595667 40.01953125 39.16796875 C25.33103545 45.60564513 8.30249471 46.50766904 -6.9609375 41.42578125 C-15.58347575 37.83398653 -22.07727256 32.21204847 -27.1484375 24.359375 C-28.31895698 21.2764575 -28.32036601 18.51959567 -28.35546875 15.23046875 C-28.38382812 14.02519531 -28.4121875 12.81992188 -28.44140625 11.578125 C-27.9002767 7.57468351 -26.81909597 5.98598888 -23.98046875 3.16796875 C-16.39607 -0.20287514 -8.14166751 0.00907802 0 0 Z " fill="#FDFDFC" transform="translate(118.98046875,132.83203125)"/>
<path d="M0 0 C4.69111854 3.02316528 8.53787292 6.66465977 10.8125 11.8125 C11.42545152 15.93522871 11.21357863 18.95565021 9.4375 22.75 C7.8125 24.8125 7.8125 24.8125 5.8125 25.8125 C1.52676295 26.10994968 -2.76765705 26.09054939 -7.0625 26.125 C-8.26003906 26.15400391 -9.45757812 26.18300781 -10.69140625 26.21289062 C-12.41810547 26.22545898 -12.41810547 26.22545898 -14.1796875 26.23828125 C-15.23526855 26.25286377 -16.29084961 26.26744629 -17.37841797 26.2824707 C-20.8737559 25.69768663 -21.99879575 24.53491867 -24.1875 21.8125 C-25.934113 18.31927401 -24.88232456 14.55191944 -24.1875 10.8125 C-22.28472008 5.31558024 -19.10909369 2.62004549 -14.1875 -0.1875 C-9.1889184 -1.85369387 -4.8737891 -1.81572535 0 0 Z " fill="#FBFBFA" transform="translate(200.1875,113.1875)"/>
<path d="M0 0 C5.16131966 4.8966366 6.85365037 9.16822368 7.06640625 16.1015625 C5.99595955 19.86474781 4.6857126 21.07355346 1.4375 23.3125 C-2.92789194 24.03387518 -7.21069419 23.96420225 -11.625 23.875 C-12.80900391 23.88595703 -13.99300781 23.89691406 -15.21289062 23.90820312 C-23.89412193 23.83442496 -23.89412193 23.83442496 -26.86889648 21.51147461 C-29.3315965 18.31390519 -29.84846288 15.24448954 -29.5625 11.3125 C-27.82430297 5.20593937 -23.88256553 0.6842082 -18.5625 -2.6875 C-11.71596284 -4.90294867 -5.9021152 -3.88675879 0 0 Z " fill="#FAFBFA" transform="translate(85.5625,115.6875)"/>
</svg>
