<?xml version="1.0" encoding="UTF-8"?>
<svg version="1.1" xmlns="http://www.w3.org/2000/svg" width="326" height="291">
<path d="M0 0 C0.92167969 0.84046875 1.84335938 1.6809375 2.79296875 2.546875 C3.45683594 3.13984375 4.12070313 3.7328125 4.8046875 4.34375 C27.86021928 26.05571932 39.34862724 57.57991412 40.73828125 88.62744141 C41.36092928 121.8668395 28.66281585 151.91955559 5.8815918 175.79052734 C-16.8247448 199.04306448 -47.26416062 212.12476138 -79.83203125 212.859375 C-81.95858155 212.79411003 -84.084082 212.68673989 -86.20703125 212.546875 C-86.87379883 212.50433594 -87.54056641 212.46179688 -88.22753906 212.41796875 C-120.1508705 210.18175873 -146.88110505 196.04560249 -169.20703125 173.546875 C-169.985625 172.76570312 -170.76421875 171.98453125 -171.56640625 171.1796875 C-178.45462012 163.95381608 -183.50860625 156.31889897 -188.20703125 147.546875 C-188.5333252 146.93827637 -188.85961914 146.32967773 -189.19580078 145.70263672 C-203.85451623 117.76016478 -206.08963067 84.3918762 -196.875 54.33203125 C-186.08514844 21.90842597 -163.5375664 -3.25852467 -133.26953125 -18.703125 C-122.82154805 -23.87714744 -111.77742362 -27.76372985 -100.20703125 -29.453125 C-99.08361328 -29.61941406 -99.08361328 -29.61941406 -97.9375 -29.7890625 C-62.32778173 -34.15907768 -26.81019219 -23.90659148 0 0 Z M-157.79492188 25.89648438 C-161.8998777 30.69411602 -165.10399722 36.06843582 -168.20703125 41.546875 C-168.84511719 42.65804687 -169.48320312 43.76921875 -170.140625 44.9140625 C-176.65388852 57.04414037 -180.93270743 70.71311675 -181.20703125 84.546875 C-181.24570313 85.70445312 -181.284375 86.86203125 -181.32421875 88.0546875 C-181.86250093 117.18173412 -170.72410412 142.25931434 -150.95703125 163.234375 C-130.22260997 183.02632258 -103.87704963 191.6783783 -75.54296875 191.52734375 C-48.19075398 190.17545268 -23.0900656 177.13125445 -4.81640625 157.01611328 C13.27902196 136.19971811 21.39958302 109.89386843 19.79296875 82.546875 C18.76651753 71.62332142 16.36319752 61.55903831 11.79296875 51.546875 C11.03693359 49.83757812 11.03693359 49.83757812 10.265625 48.09375 C-0.94157411 24.14989873 -21.72695422 4.98934018 -46.52392578 -4.32324219 C-87.51466068 -18.12244629 -128.95883316 -5.60608546 -157.79492188 25.89648438 Z " fill="#FAFAFC" transform="translate(236.20703125,64.453125)"/>
<path d="M0 0 C2.45948611 -0.00218643 4.9185225 -0.02039946 7.37792969 -0.03930664 C29.30557733 -0.11909282 29.30557733 -0.11909282 36.28417969 4.12280273 C39.70037544 8.0101979 39.49541728 12.25384468 39.43652344 17.20092773 C38.70518446 23.6232608 35.65143762 29.07740488 30.97167969 33.49780273 C19.67544763 42.21770116 6.81089963 43.26768605 -6.90332031 42.18530273 C-16.59259021 40.4060784 -24.21301182 35.82184417 -30.34082031 28.12280273 C-33.65508603 21.89198319 -34.8382275 16.20850798 -33.90332031 9.18530273 C-31.82485688 5.02837588 -30.14419174 2.9533928 -25.90332031 1.18530273 C-17.55018362 -0.57630772 -8.50010657 -0.00084427 0 0 Z " fill="#FBFBFC" transform="translate(152.9033203125,175.814697265625)"/>
<path d="M0 0 C4.71035973 2.6815531 8.09112979 5.87074874 9.7109375 11.125 C10.43842439 15.96733461 10.43164825 19.74123536 8.1484375 24.125 C2.32392872 28.90408413 -5.09080441 28.77022201 -12.2890625 28.125 C-16.69383088 27.27843791 -20.1173753 26.22776443 -23.4140625 23.125 C-24.82604691 18.28391058 -24.63793814 13.97824098 -23.2890625 9.125 C-17.98040253 0.53134679 -9.94497397 -3.80149175 0 0 Z " fill="#F7F7FA" transform="translate(222.2890625,155.875)"/>
<path d="M0 0 C4.60708546 2.74702853 8.5394919 5.80771413 10.58984375 10.93359375 C11.08849924 15.17216543 11.31614449 18.7487667 9.83984375 22.80859375 C6.24255516 26.85554341 2.10063258 27.86669656 -3.10546875 28.30859375 C-15.89100206 28.5649453 -15.89100206 28.5649453 -21.03515625 24.62109375 C-23.64743277 20.99293191 -23.44675619 17.35759287 -23.16015625 13.05859375 C-21.35712001 7.0131193 -18.28424848 3.52900167 -13.16015625 0.05859375 C-8.60269471 -1.4605601 -4.44239501 -1.93601663 0 0 Z " fill="#F8F7FA" transform="translate(102.16015625,155.94140625)"/>
</svg>
